<?xml version="1.0" standalone="no"?>
<!DOCTYPE svg PUBLIC "-//W3C//DTD SVG 20010904//EN"
 "http://www.w3.org/TR/2001/REC-SVG-20010904/DTD/svg10.dtd">
<svg version="1.0" xmlns="http://www.w3.org/2000/svg"
 width="1024.000000pt" height="1024.000000pt" viewBox="0 0 1024.000000 1024.000000"
 preserveAspectRatio="xMidYMid meet">
<metadata>
Created by potrace 1.16, written by Peter Selinger 2001-2019
</metadata>
<g transform="translate(0.000000,1024.000000) scale(0.100000,-0.100000)"
fill="#000000" stroke="none">
<path d="M5577 7289 c-33 -5 -93 -17 -135 -28 -58 -15 -128 -21 -277 -26 -314
-10 -853 -41 -825 -47 14 -4 200 -11 414 -17 213 -6 392 -14 397 -17 19 -12 7
-47 -30 -87 l-39 -42 -261 0 c-269 -1 -287 -4 -279 -41 3 -16 16 -20 88 -26
47 -3 127 -6 178 -7 104 -1 132 -11 132 -45 0 -38 -65 -114 -103 -120 -17 -3
-137 -7 -266 -9 -229 -4 -235 -5 -253 -27 -10 -12 -18 -27 -18 -34 1 -32 19
-36 193 -45 241 -12 247 -19 138 -148 -48 -55 -80 -84 -103 -91 -18 -6 -111
-12 -206 -15 -147 -4 -176 -7 -192 -22 -11 -10 -20 -26 -20 -37 0 -16 9 -18
73 -19 129 -2 262 -9 275 -14 20 -8 14 -34 -19 -74 l-31 -39 -264 -7 c-145 -4
-267 -11 -270 -16 -3 -5 5 -9 18 -10 94 -2 440 -27 445 -33 4 -3 -10 -24 -31
-45 l-38 -39 -154 -3 c-139 -4 -155 -6 -168 -24 -32 -42 -19 -50 102 -57 63
-3 116 -9 119 -12 3 -3 -62 -72 -143 -155 -215 -216 -350 -297 -623 -376 -277
-80 -492 -102 -1164 -120 -286 -7 -521 -15 -523 -18 -10 -10 1003 -36 1417
-37 273 0 279 -1 279 -51 0 -48 -14 -51 -263 -61 -127 -4 -242 -11 -254 -13
-26 -6 -39 -40 -23 -60 10 -12 46 -15 182 -15 165 0 169 -1 193 -24 27 -27 24
-58 -8 -81 -18 -13 -84 -15 -402 -16 -401 0 -545 -9 -360 -22 55 -4 128 -7
161 -7 42 0 65 -5 74 -15 14 -17 5 -52 -18 -64 -9 -4 -179 -12 -377 -16 -198
-4 -412 -10 -475 -14 l-115 -6 170 -8 c723 -32 1060 -29 1296 9 300 48 578
164 815 340 149 110 310 278 634 664 332 394 606 697 727 804 73 63 157 116
168 105 7 -8 24 -418 26 -639 l1 -165 -159 -6 c-87 -4 -177 -7 -200 -8 -42 -1
-44 -3 -194 -173 l-151 -173 68 -6 c38 -4 155 -7 259 -8 105 -1 234 -4 288 -8
l97 -6 0 -267 c0 -147 3 -301 6 -343 l7 -77 223 0 224 0 0 1210 c0 1141 -1
1210 -17 1219 -29 15 -228 41 -306 40 -40 -1 -98 -5 -130 -10z m6 -811 c-2 -5
1 -8 7 -8 7 0 10 -6 8 -12 -5 -14 19 -42 36 -44 21 -2 51 -17 74 -38 l23 -20
6 22 c3 13 8 21 12 20 3 -2 24 -12 46 -23 22 -11 42 -23 43 -27 5 -10 63 -10
78 0 7 4 14 16 17 27 4 15 5 14 6 -7 1 -29 15 -38 24 -15 3 6 6 1 7 -13 1 -23
2 -23 10 -5 5 11 9 43 11 70 1 47 2 45 11 -25 5 -41 6 -113 2 -160 -7 -83 -7
-84 -16 -42 -11 50 -15 51 -19 2 -2 -19 -8 -38 -14 -42 -5 -4 2 -8 18 -8 15 0
27 -5 27 -11 0 -7 -11 -9 -27 -6 -16 3 -91 13 -168 22 -77 9 -153 21 -170 25
-28 9 -27 9 8 4 28 -4 37 -1 37 9 0 8 -10 17 -22 20 -19 5 -20 8 -7 23 11 14
11 18 1 22 -7 2 -24 16 -38 30 l-24 27 -2 -70 c-1 -60 -2 -54 -8 40 -10 156
-10 312 0 260 4 -22 6 -43 3 -47z m-921 39 c-12 -13 -20 -26 -17 -29 3 -3 -1
-11 -10 -18 -8 -7 -15 -18 -15 -24 0 -6 5 -4 10 4 5 8 10 11 10 5 0 -5 -5 -17
-10 -25 -5 -8 -10 -10 -10 -4 0 14 -31 14 -50 1 -8 -6 12 17 45 51 33 34 61
62 64 62 2 0 -5 -10 -17 -23z m558 -25 c0 -5 -46 -58 -102 -118 -57 -60 -125
-135 -152 -167 -27 -31 -58 -59 -70 -61 -192 -39 -551 -148 -656 -201 -25 -12
-56 -26 -69 -30 l-24 -7 21 26 c39 50 16 64 -108 68 l-75 2 65 5 65 5 -65 5
c-51 5 -68 3 -77 -9 -14 -18 -26 -10 -14 9 8 13 39 15 229 19 l82 2 45 46 c53
53 59 83 18 85 -17 1 -6 6 29 14 61 13 84 32 113 93 16 31 15 35 -1 53 -13 14
-31 19 -70 19 -43 0 -52 3 -48 15 4 9 -2 18 -17 24 -18 7 -3 10 60 10 l84 1
-19 -22 c-16 -18 -17 -20 -2 -15 9 3 22 -1 28 -9 7 -8 21 -14 31 -14 11 0 19
-7 19 -16 0 -13 3 -14 15 -4 8 6 22 9 32 6 31 -9 78 17 78 45 0 23 4 24 65 27
36 2 68 8 72 15 6 9 8 8 8 -2 0 -9 8 -12 26 -8 15 3 31 -2 41 -12 12 -12 17
-13 21 -3 5 16 22 16 22 -1 0 -7 9 -18 20 -25 14 -8 20 -9 20 -1 0 6 6 9 14 6
8 -3 17 -1 20 6 2 7 5 4 5 -5 1 -10 5 -18 11 -18 5 0 6 8 3 18 -7 16 -6 16 11
-1 10 -9 23 -14 29 -10 7 3 9 3 5 -2 -4 -4 -18 -13 -30 -20 -13 -6 -22 -17
-20 -23 3 -15 -10 -15 -26 -2 -7 5 -6 3 2 -6 9 -11 21 -14 32 -10 16 6 16 9 4
17 -12 9 -12 10 3 5 12 -4 28 6 50 31 18 20 31 41 29 46 -1 4 3 5 9 1 9 -5 10
1 6 22 -3 16 -4 23 -1 17 7 -15 30 -17 39 -3 3 6 -1 7 -9 4 -19 -7 -23 31 -4
42 7 5 9 2 6 -7 -10 -25 30 -17 43 8 12 23 29 31 29 15z m-131 -96 c-2 -2 -15
-9 -29 -15 -24 -11 -24 -11 -6 3 16 13 49 24 35 12z m-935 -21 c-4 -8 -10 -15
-15 -15 -4 0 -6 7 -3 15 4 8 10 15 15 15 4 0 6 -7 3 -15z m1749 -2 c-13 -2
-33 -2 -45 0 -13 2 -3 4 22 4 25 0 35 -2 23 -4z m-1650 -190 c-23 -2 -64 -2
-90 0 -26 2 -7 3 42 3 50 0 71 -1 48 -3z"/>
<path d="M4443 6207 c-10 -13 -25 -27 -33 -30 -10 -4 -9 -6 5 -4 11 1 25 -2
32 -6 8 -5 10 0 7 19 -4 20 -1 25 10 21 10 -4 13 -1 9 9 -7 19 -8 18 -30 -9z"/>
<path d="M4345 6050 c-16 -7 -17 -9 -3 -9 9 -1 20 4 23 9 7 11 7 11 -20 0z"/>
<path d="M4266 6026 c-22 -10 -25 -14 -12 -19 9 -4 23 -3 33 0 12 5 14 3 8 -8
-4 -8 1 -5 12 6 34 34 13 45 -41 21z"/>
<path d="M6270 6050 l0 -1220 993 2 992 3 0 245 0 245 -762 3 -763 2 0 970 0
970 -230 0 -230 0 0 -1220z m31 305 c1 -54 4 -82 10 -74 6 10 9 6 9 -13 0 -16
6 -28 13 -28 8 0 7 -4 -3 -10 -13 -8 -13 -10 2 -10 9 0 29 -5 43 -12 l26 -12
-23 -18 -23 -18 25 -1 c24 -1 23 -1 -7 -15 -18 -8 -33 -21 -33 -29 0 -8 -5
-15 -11 -15 -6 0 -8 -9 -4 -21 5 -14 4 -19 -4 -15 -7 5 -9 1 -5 -9 4 -8 18
-23 33 -31 14 -8 18 -13 8 -10 -11 4 -30 9 -43 12 l-24 6 0 211 c0 116 2 208
5 205 3 -2 5 -44 6 -93z"/>
<path d="M4230 7000 c-80 -4 -174 -9 -210 -10 l-65 -3 90 -7 c50 -4 153 -9
230 -11 135 -4 140 -3 140 16 0 24 2 24 -185 15z"/>
<path d="M3710 6726 l-245 -11 314 -12 c173 -7 318 -10 322 -7 5 3 9 14 9 25
0 22 -3 22 -400 5z"/>
<path d="M3780 6379 c-113 -3 -259 -7 -325 -9 l-120 -3 85 -7 c47 -4 194 -10
326 -14 221 -6 242 -5 248 11 4 9 3 19 -1 22 -4 3 -100 3 -213 0z"/>
<path d="M3555 6030 c-115 -4 -307 -9 -425 -10 -184 -3 -202 -4 -120 -10 52
-4 251 -11 441 -15 322 -7 346 -6 352 10 9 22 0 35 -21 33 -9 -1 -111 -5 -227
-8z m203 -17 c-15 -2 -42 -2 -60 0 -18 2 -6 4 27 4 33 0 48 -2 33 -4z"/>
<path d="M3393 5821 c-292 -154 -744 -310 -1116 -386 -87 -18 -161 -35 -163
-38 -14 -14 190 -19 350 -8 434 29 823 131 1047 276 80 52 222 182 213 196 -3
5 -58 9 -122 8 l-117 0 -92 -48z m307 26 c0 -2 -10 -12 -22 -23 -16 -13 -19
-14 -10 -2 10 13 10 17 0 21 -7 3 -3 6 10 6 12 1 22 -1 22 -2z m-162 -144 c-6
-7 -24 -13 -40 -13 -24 0 -27 2 -16 15 17 19 72 17 56 -2z m-110 -12 c10 -6 4
-10 -18 -15 -40 -7 -65 5 -30 15 35 10 33 10 48 0z m-413 -71 c-3 -5 -16 -10
-28 -9 -20 1 -20 2 3 9 14 4 26 8 28 9 2 1 0 -3 -3 -9z"/>
<path d="M2490 5100 c-91 -4 -196 -8 -235 -10 l-70 -3 90 -7 c50 -4 177 -10
283 -14 l192 -7 0 26 c0 24 -3 25 -47 23 -27 -1 -122 -5 -213 -8z"/>
<path d="M5951 4140 c-24 -5 -46 -11 -48 -14 -3 -2 1 -29 7 -58 l12 -54 55 14
c100 25 173 -8 173 -77 0 -56 -24 -73 -115 -79 l-75 -5 3 -51 3 -51 54 -3
c108 -5 140 -26 140 -92 0 -82 -92 -101 -221 -46 -12 5 -20 -3 -32 -36 -10
-24 -17 -49 -17 -56 0 -34 156 -68 242 -52 112 22 165 74 174 171 6 67 -15
114 -69 148 l-37 24 34 32 c84 77 66 214 -36 266 -48 25 -174 34 -247 19z"/>
<path d="M1949 4113 c-6 -15 -51 -136 -99 -268 -48 -132 -98 -264 -109 -293
-12 -29 -21 -57 -21 -62 0 -6 29 -10 64 -10 l65 0 28 75 28 76 114 -3 114 -3
25 -72 24 -73 69 0 c38 0 69 1 69 3 0 1 -55 148 -123 327 l-122 325 -58 3
c-54 3 -58 2 -68 -25z m103 -263 l36 -110 -73 0 -73 0 29 92 c16 51 29 100 29
110 0 43 18 11 52 -92z"/>
<path d="M2470 3810 l0 -330 210 0 210 0 0 55 0 55 -145 0 -145 0 0 275 0 275
-65 0 -65 0 0 -330z"/>
<path d="M3030 3810 l0 -330 225 0 225 0 0 55 0 54 -157 3 -158 3 0 80 0 80
123 3 122 3 0 54 0 55 -125 0 -125 0 0 80 0 80 160 0 160 0 0 39 c0 75 12 71
-231 71 l-219 0 0 -330z"/>
<path d="M3554 4123 c4 -10 48 -84 98 -166 l90 -148 -98 -156 c-55 -86 -101
-160 -102 -165 -2 -5 29 -8 70 -6 l73 3 63 105 c35 58 66 106 70 107 4 1 36
-46 72 -105 l65 -107 78 -3 c42 -2 77 0 77 3 0 3 -47 78 -105 166 l-106 161
42 66 c23 37 70 109 105 161 35 51 64 95 64 97 0 2 -35 4 -77 4 l-78 -1 -67
-110 -66 -111 -64 109 -64 108 -73 3 c-67 3 -73 1 -67 -15z"/>
<path d="M4280 3810 l0 -330 210 0 210 0 0 55 0 54 -142 3 -143 3 -3 273 -2
272 -65 0 -65 0 0 -330z"/>
<path d="M4860 3810 l0 -330 225 0 225 0 0 55 0 55 -162 2 -163 3 0 80 0 80
123 3 122 3 0 54 0 54 -122 3 -123 3 0 75 0 75 158 3 c86 1 157 6 158 10 4 38
4 79 1 90 -3 9 -57 12 -223 12 l-219 0 0 -330z"/>
<path d="M5490 4131 c-23 -6 -25 -12 -28 -75 l-3 -69 28 6 c15 3 36 9 46 12
16 7 17 -10 17 -259 l0 -266 65 0 65 0 0 330 0 330 -82 -1 c-46 -1 -94 -4
-108 -8z"/>
<path d="M6486 4108 c-3 -18 -10 -87 -16 -153 -6 -66 -12 -128 -13 -139 -2
-15 9 -21 51 -32 47 -12 56 -12 75 1 26 18 86 20 122 3 55 -25 73 -116 33
-163 -45 -51 -142 -53 -227 -4 -18 11 -35 19 -36 17 -2 -2 -12 -26 -23 -54
l-19 -51 27 -16 c37 -22 135 -47 185 -47 107 0 209 61 241 145 25 66 16 153
-22 207 -51 72 -157 109 -246 85 -26 -7 -28 -5 -28 20 0 16 3 45 6 66 l7 37
128 0 129 0 0 55 0 55 -185 0 -184 0 -5 -32z"/>
<path d="M7320 3811 l0 -331 110 0 c178 0 275 31 344 111 57 68 79 137 74 244
-6 141 -55 221 -168 274 -50 24 -68 26 -207 29 l-153 4 0 -331z m262 209 c155
-43 189 -277 56 -383 -29 -23 -51 -31 -105 -37 -37 -4 -71 -5 -75 -3 -5 2 -8
101 -8 219 l0 214 48 0 c26 0 64 -5 84 -10z"/>
<path d="M8050 3810 l0 -330 223 2 222 3 3 52 3 52 -158 3 -158 3 -3 83 -3 82
126 0 125 0 0 55 0 55 -125 0 -125 0 0 80 0 80 155 0 155 0 0 55 0 55 -220 0
-220 0 0 -330z"/>
<path d="M7056 3594 c-54 -53 -4 -137 70 -118 47 12 62 90 22 118 -29 20 -72
20 -92 0z"/>
</g>
</svg>
